Coordinates
version=1
nRows=14
nColumns=63
inDegrees=yes

Units are S.I. units (second, meters, Newtons, ...)
If the header above contains a line with 'inDegrees', this indicates whether rotational values are in degrees (yes) or radians (no).

endheader
time	pelvis_tilt	pelvis_list	pelvis_rotation	pelvis_tx	pelvis_ty	pelvis_tz	hip_flexion_r	hip_adduction_r	hip_rotation_r	knee_angle_r	knee_angle_r_beta	ankle_angle_r	subtalar_angle_r	mtp_angle_r	hip_flexion_l	hip_adduction_l	hip_rotation_l	knee_angle_l	knee_angle_l_beta	ankle_angle_l	subtalar_angle_l	mtp_angle_l	L5_S1_Flex_Ext	L5_S1_Lat_Bending	L5_S1_axial_rotation	L4_L5_Flex_Ext	L4_L5_Lat_Bending	L4_L5_axial_rotation	L3_L4_Flex_Ext	L3_L4_Lat_Bending	L3_L4_axial_rotation	L2_L3_Flex_Ext	L2_L3_Lat_Bending	L2_L3_axial_rotation	L1_L2_Flex_Ext	L1_L2_Lat_Bending	L1_L2_axial_rotation	L1_T12_Flex_Ext	L1_T12_Lat_Bending	L1_T12_axial_rotation	Abs_r3	Abs_r2	Abs_r1	Abs_t1	Abs_t2	neck_flexion	neck_bending	neck_rotation	arm_flex_r	arm_add_r	arm_rot_r	elbow_flex_r	pro_sup_r	wrist_flex_r	wrist_dev_r	arm_flex_l	arm_add_l	arm_rot_l	elbow_flex_l	pro_sup_l	wrist_flex_l	wrist_dev_l
4.000000	-13.436150	-4.944035	89.590831	0.134214	1.009488	0.556839	11.404638	-13.496324	3.159690	19.259526	0.336142	38.482797	11.387388	0.000000	8.735478	10.342418	-11.117544	15.334780	0.267642	30.138481	9.788791	0.000000	-0.741566	-1.669414	2.548792	-1.377162	-2.220320	2.708091	-1.218319	-4.059013	2.708091	-0.847536	-4.059013	2.230193	-0.688618	-3.404268	2.070893	-0.423731	-2.585922	1.911594	-5.296932	-18.884742	14.175616	0.000000	0.000000	18.320877	10.859726	-16.735422	3.351707	-5.312900	29.891416	63.103334	89.041733	-0.805933	21.049039	-17.134200	-20.619403	141.814611	16.385135	7.706231	-5.441521	-3.095492
4.016667	-13.629176	-4.802685	89.237888	0.134578	1.008240	0.556376	11.777922	-13.726874	2.912089	20.179923	0.352206	39.149377	11.941382	0.000000	8.848369	10.357610	-12.111616	15.923061	0.277910	30.862768	10.930164	0.000000	-0.735517	-1.695066	2.574450	-1.365929	-2.254437	2.735353	-1.208381	-4.121383	2.735353	-0.840623	-4.121383	2.252644	-0.683001	-3.456578	2.091741	-0.420274	-2.625657	1.930837	-5.253725	-19.174922	14.318318	0.000000	0.000000	18.632061	10.738252	-16.461460	2.687389	-4.863961	28.770231	62.746776	89.140629	-1.157732	21.082881	-16.719684	-19.472802	132.555356	17.765327	3.484078	-4.898163	-3.886445
4.033333	-13.515154	-4.668864	89.029564	0.133935	1.007299	0.555557	11.973954	-13.700587	2.452569	20.857471	0.364032	39.631153	12.537128	0.000000	8.935962	10.142098	-12.755238	16.509836	0.288151	31.592097	11.860885	0.000000	-0.716761	-1.665994	2.540270	-1.331096	-2.215772	2.699037	-1.177566	-4.050699	2.699037	-0.819186	-4.050699	2.222737	-0.665584	-3.397296	2.063970	-0.409557	-2.580625	1.905203	-5.119750	-18.846061	14.128222	0.000000	0.000000	18.805121	10.284363	-15.309646	2.099701	-4.740004	28.045656	62.433986	89.174055	-1.460860	20.947840	-16.054440	-18.335128	125.416306	18.474369	1.223113	-3.767363	-4.668501
4.050000	-13.100614	-4.542190	88.979128	0.132313	1.006725	0.554434	11.982684	-13.420469	1.789509	21.269281	0.371219	39.907131	13.156742	0.000000	8.998457	9.708987	-12.986502	17.084425	0.298179	32.292583	12.499907	0.000000	-0.685866	-1.583584	2.450649	-1.273721	-2.106166	2.603815	-1.126809	-3.850325	2.603815	-0.783876	-3.850325	2.144318	-0.636895	-3.229244	1.991153	-0.391904	-2.452971	1.837987	-4.899069	-17.913814	13.629777	0.000000	0.000000	18.847291	9.497085	-13.340600	1.624752	-4.947768	27.744574	62.162214	89.168320	-1.706003	20.735582	-15.181928	-17.254435	119.704249	18.626169	0.131558	-1.950278	-5.604950
4.066667	-12.403720	-4.410764	89.088684	0.129751	1.006631	0.553067	11.783056	-12.895602	0.974715	21.386891	0.373272	39.940830	13.742083	0.000000	9.016755	9.086556	-12.735221	17.620895	0.307543	32.915113	12.730307	0.000000	-0.645040	-1.450651	2.314837	-1.197904	-1.929366	2.459514	-1.059737	-3.527113	2.459514	-0.737217	-3.527113	2.025482	-0.598985	-2.958168	1.880805	-0.368576	-2.247059	1.736127	-4.607459	-16.410057	12.874427	0.000000	0.000000	18.736855	8.410698	-10.644931	1.295618	-5.505880	27.891740	61.926177	89.132235	-1.855273	20.475357	-14.110299	-16.224309	115.274003	18.216193	0.050421	0.307449	-6.670050
4.083333	-11.464307	-4.288662	89.334720	0.126418	1.006998	0.551499	11.410134	-12.158402	0.018895	21.227669	0.370493	39.756493	14.335273	0.000000	9.003278	8.285957	-12.227595	18.102258	0.315944	33.494607	12.826800	0.000000	-0.593073	-1.275114	2.149455	-1.101395	-1.695902	2.283796	-0.974359	-3.100313	2.283796	-0.677823	-3.100313	1.880773	-0.550727	-2.600213	1.746432	-0.338882	-1.975152	1.612091	-4.236259	-14.424347	11.954623	0.000000	0.000000	18.481726	7.079823	-7.399086	1.111451	-6.413460	28.471286	61.763161	89.112123	-1.893912	20.237243	-12.829553	-15.184700	113.781522	17.213540	0.481386	2.005739	-7.886738
4.100000	-10.340635	-4.184750	89.710599	0.122504	1.007776	0.549741	10.887903	-11.254892	-1.013127	20.815744	0.363303	39.379456	14.877328	0.000000	8.954693	7.369563	-11.371175	18.496091	0.322818	33.977486	12.621212	0.000000	-0.530592	-1.069418	1.953670	-0.985362	-1.422326	2.075774	-0.871709	-2.600183	2.075774	-0.606413	-2.600183	1.709461	-0.492707	-2.180757	1.587357	-0.303180	-1.656528	1.465252	-3.789963	-12.097469	10.865725	0.000000	0.000000	18.100011	5.619713	-3.809913	1.126731	-7.644080	29.561580	61.690502	89.097622	-1.866541	20.069085	-11.395848	-14.180173	114.729408	15.615091	1.838843	2.177392	-9.215541
4.116667	-9.068791	-4.090061	90.221030	0.118142	1.009014	0.547886	10.215881	-10.210476	-2.102841	20.151104	0.351703	38.800201	15.350065	0.000000	8.879083	6.342169	-10.382643	18.822139	0.328508	34.394990	12.393623	0.000000	-0.461591	-0.839816	1.730057	-0.857221	-1.116955	1.838185	-0.758348	-2.041928	1.838185	-0.527553	-2.041928	1.513800	-0.428634	-1.712552	1.405671	-0.263753	-1.300875	1.297543	-3.297099	-9.500165	9.622057	0.000000	0.000000	17.606563	4.043786	0.012502	1.345942	-9.204908	31.142542	61.767943	89.081121	-1.854750	20.001850	-9.787276	-13.160611	118.594448	13.472881	3.044681	0.678113	-10.635559
4.133333	-7.693793	-3.991274	90.825506	0.113475	1.010755	0.546073	9.421762	-9.062267	-3.197445	19.276794	0.336444	38.021983	15.741625	0.000000	8.762612	5.249675	-9.233105	19.051479	0.332511	34.695015	12.026666	0.000000	-0.390351	-0.593275	1.498496	-0.724920	-0.789055	1.592151	-0.641307	-1.442488	1.592151	-0.446132	-1.442488	1.311184	-0.362480	-1.209805	1.217528	-0.223046	-0.918982	1.123872	-2.788235	-6.711241	8.334183	0.000000	0.000000	16.992847	2.341447	3.873463	1.670696	-11.072533	33.019037	62.093385	89.060588	-1.941701	20.093204	-7.945494	-12.096198	124.320295	11.006543	3.280581	-2.278761	-12.213107
4.150000	-6.277698	-3.865607	91.498124	0.108726	1.012995	0.544496	8.525498	-7.860368	-4.254965	18.244051	0.318419	37.063038	16.027557	0.000000	8.595941	4.128756	-8.059626	19.184496	0.334833	34.874295	11.648907	0.000000	-0.323589	-0.340615	1.284645	-0.600936	-0.453018	1.364935	-0.531624	-0.828172	1.364935	-0.369829	-0.828172	1.124064	-0.300484	-0.694582	1.043774	-0.184898	-0.527613	0.963484	-2.311361	-3.853107	7.144811	0.000000	0.000000	16.267349	0.547808	7.502324	1.953007	-13.157591	34.882450	62.761322	89.039653	-2.168269	20.348498	-5.898565	-11.278331	127.699981	8.852273	3.361772	-6.595641	-13.842338
4.166667	-4.909717	-3.699571	92.193385	0.104170	1.015669	0.543334	7.574792	-6.680398	-5.214998	17.130508	0.298984	35.969185	16.199249	0.000000	8.379076	3.050290	-6.916485	19.216666	0.335394	34.909550	11.262315	0.000000	-0.266893	-0.095910	1.118461	-0.495646	-0.127560	1.188365	-0.438478	-0.233195	1.188365	-0.305032	-0.233195	0.978653	-0.247836	-0.195579	0.908749	-0.152502	-0.148564	0.838846	-1.906387	-1.084951	6.220544	0.000000	0.000000	15.451767	-1.295833	10.650617	2.044394	-15.318840	36.399537	63.850324	89.022917	-2.545434	20.776220	-3.683177	-10.512527	130.784009	6.822311	3.321078	-11.986575	-15.510554
4.183333	-3.657347	-3.470197	92.906519	0.100032	1.018714	0.542732	6.580527	-5.578716	-6.042975	15.992502	0.279122	34.789443	16.218760	0.000000	8.101400	2.074993	-5.772660	19.150440	0.334238	34.778546	10.790291	0.000000	-0.228025	0.128861	1.020080	-0.423465	0.171385	1.083835	-0.374622	0.313312	1.083835	-0.260610	0.313312	0.892570	-0.211744	0.262773	0.828815	-0.130293	0.199605	0.765060	-1.628759	1.457697	5.673377	0.000000	0.000000	14.594015	-3.110762	13.099019	1.841232	-17.419586	37.307129	65.407370	89.013410	-3.109084	21.315719	-1.251227	-9.707983	134.082539	4.933531	3.171851	-18.180466	-17.246005
4.200000	-2.613078	-3.200060	93.555230	0.096606	1.021938	0.542739	5.647309	-4.632545	-6.664503	14.930611	0.260588	33.606135	16.113047	0.000000	7.788136	1.271705	-4.740402	18.968690	0.331066	34.481817	10.282959	0.000000	-0.204932	0.317333	1.019774	-0.380579	0.422053	1.083509	-0.336683	0.771563	1.083509	-0.234217	0.771563	0.892302	-0.190300	0.647105	0.828566	-0.117098	0.491549	0.764830	-1.463809	3.589733	5.671674	0.000000	0.000000	13.750544	-4.802674	14.617042	1.264010	-19.323861	37.390381	67.444881	89.012603	-3.829960	21.929353	1.363180	-8.851199	137.542752	3.240546	2.932435	-24.944103	-18.972344
4.216667	-1.834106	-2.898295	94.101017	0.094070	1.025173	0.543376	4.833781	-3.892847	-7.055227	14.013197	0.244576	32.479832	15.908805	0.000000	7.458837	0.678599	-3.902598	18.691727	0.326232	34.044395	9.795882	0.000000	-0.197619	0.458447	1.132694	-0.366998	0.609734	1.203487	-0.324668	1.114668	1.203487	-0.225859	1.114668	0.991107	-0.183509	0.934865	0.920314	-0.112919	0.710134	0.849520	-1.411572	5.186044	6.299703	0.000000	0.000000	12.984699	-6.290505	15.068921	0.299167	-20.939141	36.548109	69.923119	89.024107	-4.682077	22.576731	4.144886	-7.934635	141.199593	1.795653	2.607719	-32.062057	-20.629357
